<?xml version="1.0" encoding="utf-8"?><svg xmlns="http://www.w3.org/2000/svg" xmlns:xlink="http://www.w3.org/1999/xlink" width="1536" height="746" preserveAspectRatio="xMidYMid" viewBox="0 0 1536 746" style="z-index:1;margin-right:-2px;display:block;background-repeat-y:initial;background-repeat-x:initial;background-color:rgb(255, 255, 255);animation-play-state:paused" ><g transform="translate(768,373) scale(1,1) translate(-768,-373)" style="transform:matrix(1, 0, 0, 1, 0, 0);animation-play-state:paused" ><linearGradient id="lg-0.5282302072885479" x1="0" x2="1" y1="0" y2="0" style="animation-play-state:paused" ><stop stop-color="#ff00ff" offset="0" style="animation-play-state:paused" ></stop>

  
<stop stop-color="#00ffff" offset="1" style="animation-play-state:paused" ></stop></linearGradient>
<path d="M 0 0 L 0 624.113 Q 153.6 626.876 307.2 585.195 T 614.4 514.342 T 921.6 431.474 T 1228.8 384.672 T 1536 308.786 L 1536 0 Z" fill="url(#lg-0.5282302072885479)" opacity="0.4" style="opacity:0.4;animation-play-state:paused" ></path>
<path d="M 0 0 L 0 684.749 Q 153.6 594.831 307.2 568.806 T 614.4 565.581 T 921.6 469.847 T 1228.8 317.863 T 1536 312.905 L 1536 0 Z" fill="url(#lg-0.5282302072885479)" opacity="0.4" style="opacity:0.4;animation-play-state:paused" ></path>
<path d="M 0 0 L 0 707.483 Q 153.6 652.143 307.2 622.337 T 614.4 519.145 T 921.6 466.188 T 1228.8 367.807 T 1536 344.829 L 1536 0 Z" fill="url(#lg-0.5282302072885479)" opacity="0.4" style="opacity:0.4;animation-play-state:paused" ></path>
<path d="M 0 0 L 0 658.825 Q 153.6 570.244 307.2 540.15 T 614.4 512.824 T 921.6 477.484 T 1228.8 376.904 T 1536 281.767 L 1536 0 Z" fill="url(#lg-0.5282302072885479)" opacity="0.4" style="opacity:0.4;animation-play-state:paused" ></path>
<path d="M 0 0 L 0 675.807 Q 153.6 636.319 307.2 601.417 T 614.4 532.256 T 921.6 388.862 T 1228.8 397.615 T 1536 292.314 L 1536 0 Z" fill="url(#lg-0.5282302072885479)" opacity="0.4" style="opacity:0.4;animation-play-state:paused" ></path></g></svg>